<svg width="74" height="31" viewBox="0 0 74 31" fill="none" xmlns="http://www.w3.org/2000/svg">
<g id="Group 5">
<path id="M" d="M17.346 30.5375L6.25722 5.50664L4.39589 26.0148C4.29029 27.0545 4.59391 27.8993 5.30675 28.5491C6.0196 29.1989 6.89086 29.5498 7.92053 29.6018V29.9917H0V29.6018C1.00327 29.5498 1.84812 29.1859 2.53457 28.5101C3.22101 27.8343 3.61704 26.9895 3.72265 25.9758L5.70278 4.41496C5.20115 3.40124 4.5675 2.60847 3.80185 2.03664C3.0626 1.43881 2.09894 1.13989 0.910861 1.13989V0.75H10.4155L20.0785 22.7787L29.7416 0.75H37.1473V1.13989C36.3024 1.13989 35.5896 1.38682 35.0087 1.88068C34.4279 2.37454 34.1639 3.05034 34.2167 3.9081L36.2364 26.9895C36.3684 27.8733 36.7909 28.5361 37.5037 28.9779C38.243 29.4198 38.969 29.6408 39.6818 29.6408V29.9917H27.405V29.6408C27.8539 29.6408 28.3159 29.5368 28.7911 29.3288C29.2663 29.1209 29.6492 28.822 29.9396 28.4321C30.2564 28.0422 30.3752 27.5873 30.296 27.0675L28.3555 5.54563L17.346 30.5375Z" fill="#4D675C"/>
<path id="V" d="M58.298 30.5765L48.0013 5.38968C46.866 2.55649 45.5855 1.13989 44.1598 1.13989H44.041V0.75H56.7139V1.13989H56.5555C55.341 1.13989 54.5357 1.50379 54.1397 2.23158C53.7437 2.93338 53.8097 3.9211 54.3377 5.19473L61.387 22.7397L68.6343 5.19473C69.1095 4.02507 69.0435 3.07634 68.4362 2.34854C67.8554 1.59476 66.8521 1.19188 65.4264 1.13989V0.75H73.149V1.13989C72.6473 1.16588 72.1325 1.39982 71.6045 1.84169C71.1028 2.28356 70.6276 2.82941 70.1788 3.47922C69.7563 4.10305 69.4131 4.73986 69.1491 5.38968L58.694 30.5765H58.298Z" fill="#DBD2C3"/>
<path id=";" d="M43.6678 15.849C42.9907 15.849 42.4103 15.6109 41.9267 15.1348C41.443 14.6586 41.2012 14.0872 41.2012 13.4206C41.2012 12.7159 41.4527 12.135 41.9557 11.6779C42.4587 11.2207 43.0294 10.9922 43.6678 10.9922C44.3062 10.9922 44.8769 11.2207 45.3799 11.6779C45.8829 12.135 46.1344 12.7159 46.1344 13.4206C46.1344 14.0872 45.8926 14.6586 45.409 15.1348C44.9253 15.6109 44.3449 15.849 43.6678 15.849ZM42.1298 30.048L41.8686 29.9337C42.2942 29.4385 42.6811 29.01 43.0294 28.6481C43.3776 28.2862 43.6581 27.9339 43.8709 27.591C44.0837 27.2672 44.1901 26.8958 44.1901 26.4768C44.1901 26.153 44.0934 25.9054 43.9 25.734C43.7065 25.5626 43.4647 25.4293 43.1745 25.334C42.9036 25.2198 42.6231 25.096 42.3329 24.9626C42.0621 24.8293 41.8299 24.6389 41.6365 24.3913C41.443 24.1437 41.3463 23.7913 41.3463 23.3342C41.3463 22.6676 41.5494 22.1438 41.9557 21.7629C42.3813 21.3629 42.9326 21.1629 43.6098 21.1629C44.3256 21.1629 44.8963 21.401 45.3219 21.8771C45.7669 22.3343 45.9893 22.9628 45.9893 23.7627C45.9893 24.6769 45.8055 25.4674 45.438 26.134C45.0897 26.8006 44.6254 27.4387 44.045 28.0481C43.4647 28.6576 42.8262 29.3242 42.1298 30.048Z" fill="#DBD2C3"/>
</g>
</svg>
