<svg width="68" height="29" viewBox="0 0 68 29" fill="none" xmlns="http://www.w3.org/2000/svg">
<g id="Group 5">
<path id="M" d="M16.1053 28.6412L5.81466 5.04627L4.08731 24.3779C3.9893 25.358 4.27107 26.1543 4.93261 26.7668C5.59415 27.3794 6.4027 27.7101 7.35826 27.7592V28.1267H0.0078125V27.7592C0.938869 27.7101 1.72292 27.3671 2.35995 26.7301C2.99699 26.0931 3.36452 25.2968 3.46252 24.3412L5.30013 4.01721C4.8346 3.06165 4.24657 2.31436 3.53603 1.77533C2.84998 1.21179 1.95568 0.930025 0.853114 0.930025V0.5625H9.67365L18.6412 21.3275L27.6087 0.5625H34.4814V0.930025C33.6974 0.930025 33.0358 1.16279 32.4968 1.62832C31.9577 2.09384 31.7127 2.73088 31.7617 3.53943L33.6361 25.2968C33.7586 26.1298 34.1506 26.7546 34.8122 27.1711C35.4982 27.5876 36.172 27.7959 36.8335 27.7959V28.1267H25.4404V27.7959C25.8569 27.7959 26.2857 27.6979 26.7267 27.5019C27.1677 27.3059 27.523 27.0241 27.7925 26.6566C28.0865 26.2891 28.1968 25.8603 28.1233 25.3703L26.3224 5.08303L16.1053 28.6412Z" fill="white"/>
<path id="V" d="M54.1097 28.678L44.5541 4.93602C43.5006 2.26535 42.3122 0.930025 40.9892 0.930025H40.8789V0.5625H52.6396V0.930025H52.4926C51.3655 0.930025 50.6182 1.27305 50.2507 1.95909C49.8832 2.62063 49.9445 3.55168 50.4345 4.75225L56.9764 21.2908L63.702 4.75225C64.1431 3.64969 64.0818 2.75538 63.5183 2.06934C62.9792 1.3588 62.0482 0.979027 60.7251 0.930025V0.5625H67.8918V0.930025C67.4263 0.954526 66.9485 1.17504 66.4585 1.59156C65.9929 2.00809 65.5519 2.52262 65.1354 3.13516C64.7434 3.72319 64.4248 4.32348 64.1798 4.93602L54.4772 28.678H54.1097Z" fill="white"/>
<path id=";" d="M40.5327 14.7969C39.9044 14.7969 39.3658 14.5725 38.9169 14.1237C38.4681 13.6748 38.2437 13.1362 38.2437 12.5078C38.2437 11.8436 38.4771 11.296 38.9438 10.8651C39.4106 10.4342 39.9403 10.2188 40.5327 10.2188C41.1252 10.2188 41.6549 10.4342 42.1216 10.8651C42.5884 11.296 42.8218 11.8436 42.8218 12.5078C42.8218 13.1362 42.5974 13.6748 42.1486 14.1237C41.6997 14.5725 41.1611 14.7969 40.5327 14.7969ZM39.1054 28.1814L38.8631 28.0737C39.258 27.6069 39.6171 27.2029 39.9403 26.8618C40.2634 26.5207 40.5238 26.1885 40.7213 25.8654C40.9188 25.5602 41.0175 25.2101 41.0175 24.8151C41.0175 24.5099 40.9277 24.2765 40.7482 24.1149C40.5687 23.9533 40.3442 23.8276 40.0749 23.7379C39.8236 23.6301 39.5632 23.5134 39.2939 23.3878C39.0426 23.2621 38.8271 23.0826 38.6476 22.8492C38.4681 22.6158 38.3783 22.2836 38.3783 21.8527C38.3783 21.2244 38.5668 20.7306 38.9438 20.3716C39.3388 19.9945 39.8505 19.806 40.4789 19.806C41.1432 19.806 41.6728 20.0304 42.0678 20.4793C42.4807 20.9102 42.6872 21.5026 42.6872 22.2567C42.6872 23.1185 42.5166 23.8635 42.1755 24.4919C41.8523 25.1203 41.4215 25.7217 40.8828 26.2963C40.3442 26.8708 39.7518 27.4992 39.1054 28.1814Z" fill="white"/>
</g>
</svg>
